<svg xmlns="http://www.w3.org/2000/svg" width="620" height="430" viewBox="0 0 620 430" fill="none">
  <title>Hopper conveyor refinery and bar collection</title>
  <g id="plot-platform" stroke="#101E25" stroke-width="9" stroke-linejoin="round">
    <path d="m20 315 335-106 261 96-334 111Z" fill="#697B80"/>
    <path d="M20 315v33l262 78v-10Z" fill="#344D56"/>
    <path d="m282 416 334-111v31L282 426Z" fill="#465E66"/>
  </g>
  <g id="input-hopper" stroke="#101E25" stroke-width="8" stroke-linejoin="round">
    <path d="m51 260 90-25 71 24-39 66-60-4Z" fill="#6A7D83"/>
    <path d="m51 260 69 23 92-24-71-24Z" fill="#ABC4C7"/>
    <path d="m75 261 64-17 48 16-64 16Z" fill="#273D46"/>
    <path d="m105 261 12-22 23-6 17 14-1 18-30 7Z" fill="#58606A" stroke-width="5"/>
    <path d="m120 239 8 10 23-2" stroke="#FFB642" stroke-width="5"/>
    <path d="m120 283-7 38 60 4 39-66Z" fill="#415E69" stroke="none"/>
    <path d="m115 325-3 31m60-28v17" stroke="#101E25"/>
  </g>
  <g id="input-conveyor" stroke="#101E25" stroke-width="7" stroke-linejoin="round">
    <path d="m181 289 97-31 50 18-99 34Z" fill="#A2F2E2"/>
    <path d="m181 289v18l48 20v-17Zm48 21 99-34v17l-99 34Z" fill="#314C58"/>
    <path d="m208 281 45 20m-21-27 44 20m-20-28 44 21" stroke="#42666F" stroke-width="5"/>
  </g>
  <g id="refinery" stroke="#101E25" stroke-width="9" stroke-linejoin="round">
    <path d="m273 139 94-27 94 33v151l-99 32-89-31Z" fill="#FFB642"/>
    <path d="m367 112 94 33v151l-99 32Z" fill="#E77935"/>
    <path d="m273 139 94-27 94 33-99 28Z" fill="#FFE08D"/>
    <path d="m318 62 41-12 39 14v77l-40 12-40-13Z" fill="#5F747B"/>
    <path d="m359 50 39 14v77l-40 12Z" fill="#344D57"/>
    <path d="m313 54 45-14 45 15v24l-45 14-45-14Z" fill="#8BABB0"/>
    <path d="m313 54 45 15 45-14m-45 14v24" stroke-width="6"/>
    <path d="m288 169 59 19v88l-59-20Z" fill="#27333D"/>
    <path d="m297 223 11-29 16 28 8-11 6 33-16 13-16-6Z" fill="#FF742C" stroke="none"/>
    <path d="m310 231 7-16 10 25-8 12-9-7Z" fill="#FFE08D" stroke="none"/>
    <path d="m387 195 46-13v32l-46 14Z" fill="#A2F2E2" stroke-width="6"/>
    <path d="m389 256 39-11m-39 25 39-11" stroke="#101E25" stroke-width="7" stroke-linecap="round"/>
    <path d="m276 301-8 29m179-32v18m-87 17v27" stroke-width="12"/>
  </g>
  <g id="output-conveyor" stroke="#101E25" stroke-width="7" stroke-linejoin="round">
    <path d="m423 302 89-27 58 23-89 27Z" fill="#A2F2E2"/>
    <path d="m423 302v17l58 24v-18Zm58 23 89-27v17l-89 28Z" fill="#314C58"/>
    <path d="m449 294 56 23m-31-31 56 23" stroke="#42666F" stroke-width="5"/>
  </g>
  <g id="collection-bars" stroke="#101E25" stroke-width="6" stroke-linejoin="round">
    <path d="m476 272 55-17 29 12-54 17Z" fill="#FFE08D"/>
    <path d="m476 272v13l30 13v-14Zm30 12 54-17v14l-54 17Z" fill="#FFB642"/>
    <path d="m496 244 39-11 24 10-40 12Z" fill="#FFF1CB"/>
    <path d="m496 244v12l23 10v-11Zm23 11 40-12v11l-40 12Z" fill="#FFB642"/>
  </g>
  <g id="steam" stroke="#A2F2E2" stroke-width="14" stroke-linecap="round" opacity=".55">
    <path d="M350 28q-15-9-4-15"/>
    <path d="M380 26q18-9 6-16"/>
  </g>
</svg>
