<svg xmlns="http://www.w3.org/2000/svg" width="512" height="512" viewBox="0 0 512 512" role="img" aria-labelledby="title desc"><title id="title">Craftworks: Meteor Mining / Crystal Rush icon</title><desc id="desc">A cyan crystal meteor and a purple mining pickaxe on a deep blue background. Craftworks is drawn in outlined Fredoka lettering.</desc><defs>
  <linearGradient id="sky" x1="0" y1="0" x2="0" y2="1"><stop stop-color="#20275C"/><stop offset="1" stop-color="#123752"/></linearGradient>
  <linearGradient id="crystal-front" x1="0" y1="0" x2=".7" y2="1"><stop stop-color="#C7FEFF"/><stop offset=".55" stop-color="#54DEF0"/><stop offset="1" stop-color="#258AB6"/></linearGradient>
  <linearGradient id="crystal-side" x1="0" y1="0" x2="1" y2="1"><stop stop-color="#379AC8"/><stop offset="1" stop-color="#185179"/></linearGradient>
  <linearGradient id="gold" x1="0" y1="0" x2="0" y2="1"><stop stop-color="#FFF5B1"/><stop offset="1" stop-color="#FFD24D"/></linearGradient>
  <radialGradient id="light"><stop stop-color="#69EDFF" stop-opacity=".48"/><stop offset="1" stop-color="#50D7F6" stop-opacity="0"/></radialGradient>
</defs>
  <g id="icon-background"><path d="M0 0h512v512H0Z" fill="url(#sky)"/><path d="M0 374 512 90v422H0Z" fill="#284777"/>
  <path d="m269 219 192-219h51v153L350 300Z" fill="#584496"/><path d="m304 221 176-174 18 58-151 173Z" fill="#687CCA"/>
  <circle cx="257" cy="262" r="217" fill="url(#light)"/>
  <ellipse cx="251" cy="396" rx="196" ry="39" fill="#0B183B"/><ellipse cx="259" cy="388" rx="167" ry="24" fill="#377797"/>
  </g>
  <g transform="translate(66 42) scale(.66)"><g id="crystal-meteor" stroke="#0B183B" stroke-width="11" stroke-linejoin="round">
  <g id="back-crystal-spires">
    <path d="m325 205 52-156 61-30 41 68-82 172Z" fill="#587CCF"/>
    <path d="m377 49 5 144 56-174Z" fill="#A7B7FF" stroke="none"/>
    <path d="m382 193 97-106-41-68Z" fill="#6F50B3" stroke="none"/>
    <path d="m366 270 122-123 59 6 14 76-160 103Z" fill="#5880D0"/>
    <path d="m488 147-81 139 140-133Z" fill="#C0C5FF" stroke="none"/>
    <path d="m407 286 154-57-14-76Z" fill="#755EC2" stroke="none"/>
    <path d="m246 192 11-127 55-44 29 58-23 150Z" fill="#79DEF4"/>
    <path d="m257 65 28 132 27-176Z" fill="#D3FCFF" stroke="none"/>
    <path d="m285 197 56-118-29-58Z" fill="#489FD2" stroke="none"/>
  </g>
  <path d="m126 210 80-65 117-12 119 53 58 92-24 114-90 86-128 22-119-59-73-96 16-81Z" fill="url(#crystal-front)"/>
  <g stroke="none" id="meteor-facets">
    <path d="m126 210 80-65 79 94-102 57Z" fill="#B7F7FC"/>
    <path d="m206 145 117-12-38 106Z" fill="#F0FEFF"/>
    <path d="m323 133 119 53-93 94-64-41Z" fill="#7BDDED"/>
    <path d="m442 186 58 92-78 70-73-68Z" fill="#3B9BC7"/>
    <path d="m500 278-24 114-54-44Z" fill="#255882"/>
    <path d="m476 392-90 86-27-94 63-36Z" fill="#197AA9"/>
    <path d="m386 478-128 22 25-115 76-1Z" fill="#2595BC"/>
    <path d="m258 500-119-59 68-79 76 23Z" fill="#49CAE0"/>
    <path d="m139 441-73-96 117-49 24 66Z" fill="#86E4ED"/>
    <path d="m66 345 16-81 44-54 57 86Z" fill="#D1FAFB"/>
    <path d="m183 296 102-57 64 41 10 104-76 1-76-23Z" fill="#51C9DE"/>
    <path d="m285 239 64 41-66 105-100-89Z" fill="#8AEAF3"/>
  </g>
  <g id="crystal-veins" fill="none" stroke="#0B183B" stroke-width="15" stroke-linecap="round">
    <path d="m314 163-28 77 34 42-39 98 35 60"/>
    <path d="m181 298 104-58m35 42 102 65 34 1m-175 32-73-16-24 40"/>
  </g>
  <g fill="none" stroke="#C7FDFF" stroke-width="7" stroke-linecap="round">
    <path d="m314 163-28 77 34 42-39 98 35 60"/>
    <path d="m181 298 104-58m35 42 102 65 34 1m-175 32-73-16-24 40"/>
  </g>
  <path d="m115 223 64-53m160-18 37 17" stroke="#F0FEFF" stroke-width="9" stroke-linecap="round"/>
</g></g>
  <g transform="translate(117 121) rotate(-19 145 225) scale(.68)"><g id="crystal-pickaxe" stroke="#0B183B" stroke-linejoin="round">
  <path d="m179 103 29 15-115 285q-7 14-19 10l-13-8q-11-8-5-20Z" fill="#FFCA54" stroke-width="10"/>
  <path d="m184 119 9 4-113 272-8-3Z" fill="#FFF4A6" stroke="none"/>
  <path d="M66 153q17-62 79-86 100-38 185 67l-25 19q-62-48-122-41-61 3-96 45Z" fill="#537ADC" stroke-width="11"/>
  <path d="M76 139q34-54 89-61 67-10 127 45-84-45-154-6Z" fill="#B9D3FF" stroke="none"/>
  <path d="m72 139 15 18 28-16-12-18Zm223-6 10 20 25-19-16-16Z" fill="#E8FFFF" stroke-width="5"/>
  <path d="m173 95 29 6-13 40-27-10Z" fill="#303D6C" stroke-width="7"/>
  <path d="m171 103 9 3-6 23-9-4Z" fill="#7394CF" stroke="none"/>
</g></g>
  <g transform="translate(54 303) rotate(-28) scale(0.38)" stroke="#0B183B" stroke-width="6" stroke-linejoin="round"><path d="m0-49 34 22-5 47L-3 43-30 16-27-27Z" fill="#83E6F2"/><path d="m0-49 1 91 28-22 5-47Z" fill="#389DCB" stroke="none"/><path d="m0-49-27 22-3 43 31-12Z" fill="#D1F9FF" stroke="none"/></g><g transform="translate(441 348) rotate(26) scale(0.38)" stroke="#0B183B" stroke-width="6" stroke-linejoin="round"><path d="m0-49 34 22-5 47L-3 43-30 16-27-27Z" fill="#83E6F2"/><path d="m0-49 1 91 28-22 5-47Z" fill="#389DCB" stroke="none"/><path d="m0-49-27 22-3 43 31-12Z" fill="#D1F9FF" stroke="none"/></g><path d="M0-23 6-6 23 0 6 6 0 23-6 6-23 0-6-6Z" transform="translate(64 156) scale(0.54)" fill="#DFFFFF"/><path d="M0-23 6-6 23 0 6 6 0 23-6 6-23 0-6-6Z" transform="translate(423 136) scale(0.6)" fill="#DFFFFF"/><path d="M0-23 6-6 23 0 6 6 0 23-6 6-23 0-6-6Z" transform="translate(390 389) scale(0.38)" fill="#B6A6FF"/>
  <g aria-label="CRAFTWORKS" transform="translate(33.30 481.94)"><path d="M31.37-12.10L31.37-12.10L32.51-12.92Q34.65-14.18 35.53-14.18L35.53-14.18Q37.48-14.18 39.75-10.65L39.75-10.65Q41.14-8.44 41.14-7.12Q41.14-5.80 40.29-4.91Q39.44-4.03 38.30-3.34Q37.17-2.65 36.13-2.02Q35.09-1.39 31.88-0.38Q28.66 0.63 25.67 0.63Q22.68 0.63 19.62-0.16Q16.57-0.95 13.32-2.80Q10.08-4.66 7.50-7.34Q4.91-10.02 3.24-14.21Q1.57-18.40 1.57-23.31Q1.57-28.22 3.21-32.22Q4.85-36.23 7.40-38.84Q9.95-41.45 13.23-43.22L13.23-43.22Q19.40-46.62 25.64-46.62L25.64-46.62Q28.60-46.62 31.66-45.71Q34.71-44.79 36.29-43.85L36.29-43.85L37.80-42.97Q38.93-42.27 39.56-41.83L39.56-41.83Q41.20-40.51 41.20-38.84Q41.20-37.17 39.88-35.34L39.88-35.34Q37.42-31.94 35.47-31.94L35.47-31.94Q34.34-31.94 32.26-33.33L32.26-33.33Q29.61-35.47 25.20-35.47L25.20-35.47Q21.11-35.47 17.14-32.63L17.14-32.63Q15.25-31.25 13.99-28.73Q12.73-26.21 12.73-23.03Q12.73-19.84 13.99-17.32Q15.25-14.80 17.20-13.36L17.20-13.36Q21.04-10.58 25.20-10.58L25.20-10.58Q27.15-10.58 28.89-11.09Q30.62-11.59 31.37-12.10ZM80.64-7.81L80.64-7.81Q81.59-5.54 81.59-4.54L81.59-4.54Q81.59-2.14 77.68-0.50L77.68-0.50Q75.66 0.38 74.43 0.38Q73.21 0.38 72.42-0.22Q71.63-0.82 71.25-1.45L71.25-1.45Q70.62-2.65 66.34-12.85L66.34-12.85L64.39-12.73L56.45-12.73L56.45-5.61Q56.45-4.16 56.35-3.43Q56.26-2.71 55.76-1.76L55.76-1.76Q54.87-0.06 50.84-0.06L50.84-0.06Q46.43-0.06 45.68-2.39L45.68-2.39Q45.30-3.46 45.30-5.67L45.30-5.67L45.30-40.63Q45.30-42.08 45.39-42.81Q45.49-43.53 45.99-44.48L45.99-44.48Q46.87-46.18 50.90-46.18L50.90-46.18L64.51-46.18Q70.06-46.18 75.28-42.15L75.28-42.15Q77.81-40.19 79.44-36.85Q81.08-33.52 81.08-29.42L81.08-29.42Q81.08-22.30 76.36-17.70L76.36-17.70Q77.74-14.36 80.64-7.81ZM56.45-35.03L56.45-23.88L64.51-23.88Q66.34-23.88 68.17-25.26Q69.99-26.65 69.99-29.42Q69.99-32.19 68.17-33.61Q66.34-35.03 64.39-35.03L64.39-35.03L56.45-35.03ZM111.70-42.90L111.70-42.90L128.71-7.75Q129.78-5.61 129.78-4.54L129.78-4.54Q129.78-2.27 126.13-0.44L126.13-0.44Q123.98 0.63 122.76 0.63Q121.53 0.63 120.74 0.06Q119.95-0.50 119.61-1.13Q119.26-1.76 118.63-3.02L118.63-3.02L115.35-9.83L97.90-9.83L94.63-3.02Q94.00-1.76 93.65-1.20Q93.30-0.63 92.52-0.03Q91.73 0.57 90.50 0.57Q89.27 0.57 87.13-0.50L87.13-0.50Q83.47-2.27 83.47-4.54L83.47-4.54Q83.47-5.61 84.55-7.75L84.55-7.75L101.56-42.97Q102.25-44.41 103.67-45.30Q105.08-46.18 106.66-46.18L106.66-46.18Q110.06-46.18 111.70-42.90ZM110.82-19.15L106.60-27.78L102.44-19.15L110.82-19.15ZM138.98-46.18L163.80-46.18Q165.25-46.18 165.97-46.08Q166.70-45.99 167.61-45.49Q168.52-44.98 168.90-43.79Q169.28-42.59 169.28-40.57Q169.28-38.56 168.90-37.36Q168.52-36.16 167.58-35.69Q166.63-35.22 165.91-35.12Q165.19-35.03 163.67-35.03L163.67-35.03L144.40-35.03L144.40-28.66L156.81-28.66Q158.32-28.66 159.04-28.57Q159.77-28.48 160.71-27.97L160.71-27.97Q162.35-27.03 162.35-23.00L162.35-23.00Q162.35-18.59 159.96-17.77L159.96-17.77Q158.95-17.45 156.74-17.45L156.74-17.45L144.40-17.45L144.40-5.54Q144.40-4.03 144.30-3.34Q144.21-2.65 143.70-1.70L143.70-1.70Q142.82 0 138.79 0L138.79 0Q134.38 0 133.62-2.39L133.62-2.39Q133.25-3.40 133.25-5.61L133.25-5.61L133.25-40.63Q133.25-43.85 134.44-45.01Q135.64-46.18 138.98-46.18L138.98-46.18ZM176.40-46.24L176.40-46.24L211.43-46.24Q213.44-46.24 214.39-45.77Q215.33-45.30 215.65-44.29Q215.96-43.28 215.96-41.64Q215.96-40.01 215.65-39.03Q215.33-38.05 214.58-37.67L214.58-37.67Q213.44-37.11 211.37-37.11L211.37-37.11L199.33-37.11L199.33-5.42Q199.33-3.97 199.24-3.28Q199.14-2.58 198.67-1.67Q198.20-0.76 197.00-0.38Q195.80 0 193.85 0Q191.90 0 190.73-0.38Q189.57-0.76 189.09-1.67Q188.62-2.58 188.53-3.31Q188.43-4.03 188.43-5.48L188.43-5.48L188.43-37.11L176.34-37.11Q174.32-37.11 173.38-37.58Q172.43-38.05 172.12-39.06Q171.80-40.07 171.80-41.71Q171.80-43.34 172.12-44.32Q172.43-45.30 173.19-45.67L173.19-45.67Q174.32-46.24 176.40-46.24ZM274.68-45.93L274.68-45.93Q278.90-44.41 278.90-41.90L278.90-41.90Q278.90-41.08 278.14-38.81L278.14-38.81L266.05-3.84Q265.92-3.40 265.61-2.77Q265.29-2.14 263.94-1.10Q262.58-0.06 260.73-0.06Q258.87-0.06 257.51-1.10Q256.16-2.14 255.72-3.15L255.72-3.15L248.35-24.89Q241.35-4.22 241.23-3.84Q241.10-3.46 240.66-2.77Q240.22-2.08 239.65-1.51L239.65-1.51Q238.20-0.06 236.19-0.06Q234.17-0.06 232.88-1.01Q231.59-1.95 231.15-2.90L231.15-2.90L230.71-3.84L218.55-38.81Q217.85-40.89 217.85-41.90L217.85-41.90Q217.85-44.41 222.07-45.86L222.07-45.86Q223.90-46.49 225.38-46.49Q226.86-46.49 227.65-45.49Q228.44-44.48 229.07-42.40L229.07-42.40L236.00-21.36L242.86-42.08Q243.75-44.73 246.08-45.74L246.08-45.74Q247.09-46.18 248.69-46.18Q250.30-46.18 251.69-45.14Q253.07-44.10 253.45-43.09L253.45-43.09L260.69-21.23L267.62-42.40Q268.13-43.85 268.44-44.54Q268.76-45.23 269.61-45.90Q270.46-46.56 271.72-46.56Q272.98-46.56 274.68-45.93ZM304.04-46.75L304.04-46.75Q313.36-46.75 320.23-40.01Q327.10-33.26 327.10-23.28Q327.10-13.29 320.54-6.27Q313.99 0.76 304.42 0.76Q294.84 0.76 288.13-6.17Q281.42-13.10 281.42-22.68L281.42-22.68Q281.42-27.91 283.31-32.48Q285.20-37.04 288.35-40.13Q291.50-43.22 295.60-44.98Q299.69-46.75 304.04-46.75ZM292.57-23.00Q292.57-17.39 296.19-13.89Q299.82-10.39 304.29-10.39Q308.76-10.39 312.35-13.80Q315.94-17.20 315.94-22.93Q315.94-28.66 312.32-32.13Q308.70-35.59 304.23-35.59Q299.75-35.59 296.16-32.10Q292.57-28.60 292.57-23.00ZM366.53-7.81L366.53-7.81Q367.48-5.54 367.48-4.54L367.48-4.54Q367.48-2.14 363.57-0.50L363.57-0.50Q361.56 0.38 360.33 0.38Q359.10 0.38 358.31-0.22Q357.52-0.82 357.15-1.45L357.15-1.45Q356.52-2.65 352.23-12.85L352.23-12.85L350.28-12.73L342.34-12.73L342.34-5.61Q342.34-4.16 342.25-3.43Q342.15-2.71 341.65-1.76L341.65-1.76Q340.77-0.06 336.74-0.06L336.74-0.06Q332.32-0.06 331.57-2.39L331.57-2.39Q331.19-3.46 331.19-5.67L331.19-5.67L331.19-40.63Q331.19-42.08 331.29-42.81Q331.38-43.53 331.88-44.48L331.88-44.48Q332.77-46.18 336.80-46.18L336.80-46.18L350.41-46.18Q355.95-46.18 361.18-42.15L361.18-42.15Q363.70-40.19 365.34-36.85Q366.98-33.52 366.98-29.42L366.98-29.42Q366.98-22.30 362.25-17.70L362.25-17.70Q363.64-14.36 366.53-7.81ZM342.34-35.03L342.34-23.88L350.41-23.88Q352.23-23.88 354.06-25.26Q355.89-26.65 355.89-29.42Q355.89-32.19 354.06-33.61Q352.23-35.03 350.28-35.03L350.28-35.03L342.34-35.03ZM393.25-25.58L390.73-23.18Q400.36-13.92 404.40-9.26L404.40-9.26Q406.48-6.93 406.48-5.32Q406.48-3.72 403.96-1.54Q401.44 0.63 399.83 0.63Q398.22 0.63 395.95-2.02L395.95-2.02L382.09-17.83L382.09-5.54Q382.09-4.03 382.00-3.34Q381.91-2.65 381.40-1.70L381.40-1.70Q380.52 0 376.49 0L376.49 0Q372.08 0 371.32-2.39L371.32-2.39Q370.94-3.40 370.94-5.61L370.94-5.61L370.94-40.63Q370.94-42.08 371.04-42.81Q371.13-43.53 371.64-44.48L371.64-44.48Q372.52-46.18 376.55-46.18L376.55-46.18Q380.96-46.18 381.78-43.85L381.78-43.85Q382.09-42.78 382.09-40.57L382.09-40.57L382.09-28.54Q390.66-38.18 395.95-44.35L395.95-44.35Q398.16-46.94 399.80-46.94Q401.44-46.94 403.96-44.76Q406.48-42.59 406.48-40.98Q406.48-39.38 404.59-37.17L404.59-37.17Q400.93-32.95 393.25-25.58L393.25-25.58ZM412.46-5.80L411.89-6.49Q410.26-8.51 410.26-10.11Q410.26-11.72 412.96-14.36L412.96-14.36Q414.54-15.88 416.30-15.88Q418.07-15.88 421.22-12.73L421.22-12.73Q422.10-11.65 423.74-10.68Q425.38-9.70 426.76-9.70L426.76-9.70Q432.62-9.70 432.62-14.49L432.62-14.49Q432.62-15.94 431.01-16.92Q429.41-17.89 427.01-18.33Q424.62-18.77 421.85-19.75Q419.08-20.73 416.68-22.05Q414.29-23.37 412.68-26.24Q411.07-29.11 411.07-33.14L411.07-33.14Q411.07-38.68 415.20-42.81Q419.33-46.94 426.45-46.94L426.45-46.94Q430.23-46.94 433.35-45.96Q436.46-44.98 437.66-43.97L437.66-43.97L439.24-42.78Q441.19-40.95 441.19-39.69Q441.19-38.43 439.68-36.23L439.68-36.23Q437.53-33.08 435.27-33.08L435.27-33.08Q433.94-33.08 431.99-34.34L431.99-34.34Q431.80-34.46 431.27-34.97Q430.73-35.47 430.29-35.78L430.29-35.78Q428.97-36.60 426.92-36.60Q424.87-36.60 423.52-35.63Q422.16-34.65 422.16-32.92Q422.16-31.18 423.77-30.11Q425.38-29.04 427.77-28.66Q430.16-28.29 433.00-27.50Q435.83-26.71 438.23-25.58Q440.62-24.44 442.23-21.64Q443.83-18.84 443.83-14.74Q443.83-10.65 442.20-7.53Q440.56-4.41 437.91-2.71L437.91-2.71Q432.81 0.63 427.01 0.63L427.01 0.63Q424.05 0.63 421.41-0.09Q418.76-0.82 417.12-1.89L417.12-1.89Q413.78-3.91 412.46-5.80L412.46-5.80Z" transform="translate(0 4)" fill="#246A9B" stroke="#0B183B" stroke-width="9" stroke-linejoin="round"/><path d="M31.37-12.10L31.37-12.10L32.51-12.92Q34.65-14.18 35.53-14.18L35.53-14.18Q37.48-14.18 39.75-10.65L39.75-10.65Q41.14-8.44 41.14-7.12Q41.14-5.80 40.29-4.91Q39.44-4.03 38.30-3.34Q37.17-2.65 36.13-2.02Q35.09-1.39 31.88-0.38Q28.66 0.63 25.67 0.63Q22.68 0.63 19.62-0.16Q16.57-0.95 13.32-2.80Q10.08-4.66 7.50-7.34Q4.91-10.02 3.24-14.21Q1.57-18.40 1.57-23.31Q1.57-28.22 3.21-32.22Q4.85-36.23 7.40-38.84Q9.95-41.45 13.23-43.22L13.23-43.22Q19.40-46.62 25.64-46.62L25.64-46.62Q28.60-46.62 31.66-45.71Q34.71-44.79 36.29-43.85L36.29-43.85L37.80-42.97Q38.93-42.27 39.56-41.83L39.56-41.83Q41.20-40.51 41.20-38.84Q41.20-37.17 39.88-35.34L39.88-35.34Q37.42-31.94 35.47-31.94L35.47-31.94Q34.34-31.94 32.26-33.33L32.26-33.33Q29.61-35.47 25.20-35.47L25.20-35.47Q21.11-35.47 17.14-32.63L17.14-32.63Q15.25-31.25 13.99-28.73Q12.73-26.21 12.73-23.03Q12.73-19.84 13.99-17.32Q15.25-14.80 17.20-13.36L17.20-13.36Q21.04-10.58 25.20-10.58L25.20-10.58Q27.15-10.58 28.89-11.09Q30.62-11.59 31.37-12.10ZM80.64-7.81L80.64-7.81Q81.59-5.54 81.59-4.54L81.59-4.54Q81.59-2.14 77.68-0.50L77.68-0.50Q75.66 0.38 74.43 0.38Q73.21 0.38 72.42-0.22Q71.63-0.82 71.25-1.45L71.25-1.45Q70.62-2.65 66.34-12.85L66.34-12.85L64.39-12.73L56.45-12.73L56.45-5.61Q56.45-4.16 56.35-3.43Q56.26-2.71 55.76-1.76L55.76-1.76Q54.87-0.06 50.84-0.06L50.84-0.06Q46.43-0.06 45.68-2.39L45.68-2.39Q45.30-3.46 45.30-5.67L45.30-5.67L45.30-40.63Q45.30-42.08 45.39-42.81Q45.49-43.53 45.99-44.48L45.99-44.48Q46.87-46.18 50.90-46.18L50.90-46.18L64.51-46.18Q70.06-46.18 75.28-42.15L75.28-42.15Q77.81-40.19 79.44-36.85Q81.08-33.52 81.08-29.42L81.08-29.42Q81.08-22.30 76.36-17.70L76.36-17.70Q77.74-14.36 80.64-7.81ZM56.45-35.03L56.45-23.88L64.51-23.88Q66.34-23.88 68.17-25.26Q69.99-26.65 69.99-29.42Q69.99-32.19 68.17-33.61Q66.34-35.03 64.39-35.03L64.39-35.03L56.45-35.03ZM111.70-42.90L111.70-42.90L128.71-7.75Q129.78-5.61 129.78-4.54L129.78-4.54Q129.78-2.27 126.13-0.44L126.13-0.44Q123.98 0.63 122.76 0.63Q121.53 0.63 120.74 0.06Q119.95-0.50 119.61-1.13Q119.26-1.76 118.63-3.02L118.63-3.02L115.35-9.83L97.90-9.83L94.63-3.02Q94.00-1.76 93.65-1.20Q93.30-0.63 92.52-0.03Q91.73 0.57 90.50 0.57Q89.27 0.57 87.13-0.50L87.13-0.50Q83.47-2.27 83.47-4.54L83.47-4.54Q83.47-5.61 84.55-7.75L84.55-7.75L101.56-42.97Q102.25-44.41 103.67-45.30Q105.08-46.18 106.66-46.18L106.66-46.18Q110.06-46.18 111.70-42.90ZM110.82-19.15L106.60-27.78L102.44-19.15L110.82-19.15ZM138.98-46.18L163.80-46.18Q165.25-46.18 165.97-46.08Q166.70-45.99 167.61-45.49Q168.52-44.98 168.90-43.79Q169.28-42.59 169.28-40.57Q169.28-38.56 168.90-37.36Q168.52-36.16 167.58-35.69Q166.63-35.22 165.91-35.12Q165.19-35.03 163.67-35.03L163.67-35.03L144.40-35.03L144.40-28.66L156.81-28.66Q158.32-28.66 159.04-28.57Q159.77-28.48 160.71-27.97L160.71-27.97Q162.35-27.03 162.35-23.00L162.35-23.00Q162.35-18.59 159.96-17.77L159.96-17.77Q158.95-17.45 156.74-17.45L156.74-17.45L144.40-17.45L144.40-5.54Q144.40-4.03 144.30-3.34Q144.21-2.65 143.70-1.70L143.70-1.70Q142.82 0 138.79 0L138.79 0Q134.38 0 133.62-2.39L133.62-2.39Q133.25-3.40 133.25-5.61L133.25-5.61L133.25-40.63Q133.25-43.85 134.44-45.01Q135.64-46.18 138.98-46.18L138.98-46.18ZM176.40-46.24L176.40-46.24L211.43-46.24Q213.44-46.24 214.39-45.77Q215.33-45.30 215.65-44.29Q215.96-43.28 215.96-41.64Q215.96-40.01 215.65-39.03Q215.33-38.05 214.58-37.67L214.58-37.67Q213.44-37.11 211.37-37.11L211.37-37.11L199.33-37.11L199.33-5.42Q199.33-3.97 199.24-3.28Q199.14-2.58 198.67-1.67Q198.20-0.76 197.00-0.38Q195.80 0 193.85 0Q191.90 0 190.73-0.38Q189.57-0.76 189.09-1.67Q188.62-2.58 188.53-3.31Q188.43-4.03 188.43-5.48L188.43-5.48L188.43-37.11L176.34-37.11Q174.32-37.11 173.38-37.58Q172.43-38.05 172.12-39.06Q171.80-40.07 171.80-41.71Q171.80-43.34 172.12-44.32Q172.43-45.30 173.19-45.67L173.19-45.67Q174.32-46.24 176.40-46.24ZM274.68-45.93L274.68-45.93Q278.90-44.41 278.90-41.90L278.90-41.90Q278.90-41.08 278.14-38.81L278.14-38.81L266.05-3.84Q265.92-3.40 265.61-2.77Q265.29-2.14 263.94-1.10Q262.58-0.06 260.73-0.06Q258.87-0.06 257.51-1.10Q256.16-2.14 255.72-3.15L255.72-3.15L248.35-24.89Q241.35-4.22 241.23-3.84Q241.10-3.46 240.66-2.77Q240.22-2.08 239.65-1.51L239.65-1.51Q238.20-0.06 236.19-0.06Q234.17-0.06 232.88-1.01Q231.59-1.95 231.15-2.90L231.15-2.90L230.71-3.84L218.55-38.81Q217.85-40.89 217.85-41.90L217.85-41.90Q217.85-44.41 222.07-45.86L222.07-45.86Q223.90-46.49 225.38-46.49Q226.86-46.49 227.65-45.49Q228.44-44.48 229.07-42.40L229.07-42.40L236.00-21.36L242.86-42.08Q243.75-44.73 246.08-45.74L246.08-45.74Q247.09-46.18 248.69-46.18Q250.30-46.18 251.69-45.14Q253.07-44.10 253.45-43.09L253.45-43.09L260.69-21.23L267.62-42.40Q268.13-43.85 268.44-44.54Q268.76-45.23 269.61-45.90Q270.46-46.56 271.72-46.56Q272.98-46.56 274.68-45.93ZM304.04-46.75L304.04-46.75Q313.36-46.75 320.23-40.01Q327.10-33.26 327.10-23.28Q327.10-13.29 320.54-6.27Q313.99 0.76 304.42 0.76Q294.84 0.76 288.13-6.17Q281.42-13.10 281.42-22.68L281.42-22.68Q281.42-27.91 283.31-32.48Q285.20-37.04 288.35-40.13Q291.50-43.22 295.60-44.98Q299.69-46.75 304.04-46.75ZM292.57-23.00Q292.57-17.39 296.19-13.89Q299.82-10.39 304.29-10.39Q308.76-10.39 312.35-13.80Q315.94-17.20 315.94-22.93Q315.94-28.66 312.32-32.13Q308.70-35.59 304.23-35.59Q299.75-35.59 296.16-32.10Q292.57-28.60 292.57-23.00ZM366.53-7.81L366.53-7.81Q367.48-5.54 367.48-4.54L367.48-4.54Q367.48-2.14 363.57-0.50L363.57-0.50Q361.56 0.38 360.33 0.38Q359.10 0.38 358.31-0.22Q357.52-0.82 357.15-1.45L357.15-1.45Q356.52-2.65 352.23-12.85L352.23-12.85L350.28-12.73L342.34-12.73L342.34-5.61Q342.34-4.16 342.25-3.43Q342.15-2.71 341.65-1.76L341.65-1.76Q340.77-0.06 336.74-0.06L336.74-0.06Q332.32-0.06 331.57-2.39L331.57-2.39Q331.19-3.46 331.19-5.67L331.19-5.67L331.19-40.63Q331.19-42.08 331.29-42.81Q331.38-43.53 331.88-44.48L331.88-44.48Q332.77-46.18 336.80-46.18L336.80-46.18L350.41-46.18Q355.95-46.18 361.18-42.15L361.18-42.15Q363.70-40.19 365.34-36.85Q366.98-33.52 366.98-29.42L366.98-29.42Q366.98-22.30 362.25-17.70L362.25-17.70Q363.64-14.36 366.53-7.81ZM342.34-35.03L342.34-23.88L350.41-23.88Q352.23-23.88 354.06-25.26Q355.89-26.65 355.89-29.42Q355.89-32.19 354.06-33.61Q352.23-35.03 350.28-35.03L350.28-35.03L342.34-35.03ZM393.25-25.58L390.73-23.18Q400.36-13.92 404.40-9.26L404.40-9.26Q406.48-6.93 406.48-5.32Q406.48-3.72 403.96-1.54Q401.44 0.63 399.83 0.63Q398.22 0.63 395.95-2.02L395.95-2.02L382.09-17.83L382.09-5.54Q382.09-4.03 382.00-3.34Q381.91-2.65 381.40-1.70L381.40-1.70Q380.52 0 376.49 0L376.49 0Q372.08 0 371.32-2.39L371.32-2.39Q370.94-3.40 370.94-5.61L370.94-5.61L370.94-40.63Q370.94-42.08 371.04-42.81Q371.13-43.53 371.64-44.48L371.64-44.48Q372.52-46.18 376.55-46.18L376.55-46.18Q380.96-46.18 381.78-43.85L381.78-43.85Q382.09-42.78 382.09-40.57L382.09-40.57L382.09-28.54Q390.66-38.18 395.95-44.35L395.95-44.35Q398.16-46.94 399.80-46.94Q401.44-46.94 403.96-44.76Q406.48-42.59 406.48-40.98Q406.48-39.38 404.59-37.17L404.59-37.17Q400.93-32.95 393.25-25.58L393.25-25.58ZM412.46-5.80L411.89-6.49Q410.26-8.51 410.26-10.11Q410.26-11.72 412.96-14.36L412.96-14.36Q414.54-15.88 416.30-15.88Q418.07-15.88 421.22-12.73L421.22-12.73Q422.10-11.65 423.74-10.68Q425.38-9.70 426.76-9.70L426.76-9.70Q432.62-9.70 432.62-14.49L432.62-14.49Q432.62-15.94 431.01-16.92Q429.41-17.89 427.01-18.33Q424.62-18.77 421.85-19.75Q419.08-20.73 416.68-22.05Q414.29-23.37 412.68-26.24Q411.07-29.11 411.07-33.14L411.07-33.14Q411.07-38.68 415.20-42.81Q419.33-46.94 426.45-46.94L426.45-46.94Q430.23-46.94 433.35-45.96Q436.46-44.98 437.66-43.97L437.66-43.97L439.24-42.78Q441.19-40.95 441.19-39.69Q441.19-38.43 439.68-36.23L439.68-36.23Q437.53-33.08 435.27-33.08L435.27-33.08Q433.94-33.08 431.99-34.34L431.99-34.34Q431.80-34.46 431.27-34.97Q430.73-35.47 430.29-35.78L430.29-35.78Q428.97-36.60 426.92-36.60Q424.87-36.60 423.52-35.63Q422.16-34.65 422.16-32.92Q422.16-31.18 423.77-30.11Q425.38-29.04 427.77-28.66Q430.16-28.29 433.00-27.50Q435.83-26.71 438.23-25.58Q440.62-24.44 442.23-21.64Q443.83-18.84 443.83-14.74Q443.83-10.65 442.20-7.53Q440.56-4.41 437.91-2.71L437.91-2.71Q432.81 0.63 427.01 0.63L427.01 0.63Q424.05 0.63 421.41-0.09Q418.76-0.82 417.12-1.89L417.12-1.89Q413.78-3.91 412.46-5.80L412.46-5.80Z" fill="url(#gold)" stroke="#0B183B" stroke-width="6" stroke-linejoin="round" paint-order="stroke fill"/></g>
  </svg>