# Original MeteorShift mineral, Y-up
v 0.322545 -0.472933 0.025434
v 0.154266 -0.493407 -0.203094
v -0.117373 -0.445087 -0.275955
v -0.378349 -0.466907 -0.12384
v -0.322172 -0.450301 0.149707
v -0.121678 -0.44216 0.344253
v 0.195053 -0.5 0.301229
v 0.5 -0.229116 -0.019846
v 0.275883 -0.221824 -0.421156
v -0.227825 -0.241768 -0.5
v -0.496045 -0.207084 -0.131606
v -0.5 -0.201679 0.277941
v -0.112372 -0.253297 0.5
v 0.297345 -0.240557 0.354188
v 0.334769 0.197369 -0.038083
v 0.159755 0.166081 -0.323063
v -0.206494 0.194862 -0.327731
v -0.47685 0.190398 -0.085027
v -0.388895 0.220234 0.257957
v -0.060937 0.157835 0.399847
v 0.242207 0.184228 0.255439
v -0.10817 0.5 0.066806
f 17 16 10
f 16 9 10
f 9 2 10
f 2 3 10
f 3 4 10
f 4 11 10
f 11 18 10
f 18 17 10
f 18 22 17
f 22 16 17
f 22 15 16
f 15 9 16
f 15 8 9
f 8 1 9
f 1 2 9
f 1 7 2
f 7 4 2
f 4 3 2
f 5 12 4
f 12 11 4
f 7 5 4
f 12 18 11
f 12 19 18
f 19 22 18
f 20 21 22
f 21 15 22
f 19 20 22
f 21 8 15
f 21 14 8
f 14 7 8
f 7 1 8
f 14 13 7
f 13 6 7
f 6 5 7
f 6 12 5
f 6 13 12
f 13 19 12
f 13 20 19
f 14 21 20
f 13 14 20
