# Original MeteorShift mineral, Y-up
v 0.390967 -0.482797 -0.048506
v 0.168951 -0.49614 -0.341934
v -0.159736 -0.5 -0.316618
v -0.384097 -0.483916 -0.048506
v -0.207333 -0.499742 0.300922
v 0.199716 -0.492853 0.297482
v 0.5 -0.317521 -0.093262
v 0.209123 -0.321198 -0.5
v -0.284401 -0.333283 -0.442888
v -0.5 -0.31875 -0.004248
v -0.260262 -0.310498 0.5
v 0.328093 -0.310997 0.414915
v 0.434068 -0.037031 -0.126919
v 0.150913 -0.057964 -0.472268
v -0.26817 -0.046855 -0.357005
v -0.444431 -0.044825 0.030762
v -0.134159 -0.046616 0.313621
v 0.269868 -0.058422 0.268482
v -0.002802 0.5 -0.002022
f 5 4 3
f 4 9 3
f 9 8 3
f 8 2 3
f 2 5 3
f 11 10 5
f 10 4 5
f 2 6 5
f 6 11 5
f 10 9 4
f 10 15 9
f 15 14 9
f 14 8 9
f 14 13 8
f 13 7 8
f 7 1 8
f 1 2 8
f 1 6 2
f 16 10 11
f 6 12 11
f 12 19 11
f 19 16 11
f 16 15 10
f 1 12 6
f 16 19 15
f 19 14 15
f 19 13 14
f 19 18 13
f 18 12 13
f 12 7 13
f 12 1 7
f 18 19 12
