# Original MeteorShift mineral, Y-up
v 0.2696 -0.462018 -0.032391
v 0.066808 -0.5 -0.378729
v -0.253224 -0.46525 -0.209557
v -0.259555 -0.49209 0.149898
v 0.070881 -0.487839 0.327906
v 0.5 -0.261824 -0.086079
v 0.061491 -0.283697 -0.5
v -0.5 -0.271646 -0.342103
v -0.416891 -0.303875 0.340067
v 0.170235 -0.281175 0.5
v 0.317009 0.065989 -0.103568
v 0.016034 0.053498 -0.447232
v -0.417633 0.037197 -0.237737
v -0.322472 0.077998 0.303633
v 0.129323 0.078296 0.305707
v 0.025161 0.5 0.01301
f 6 2 7
f 2 8 7
f 8 12 7
f 12 6 7
f 11 16 6
f 16 15 6
f 15 10 6
f 10 5 6
f 5 1 6
f 1 2 6
f 12 11 6
f 5 4 2
f 4 3 2
f 3 8 2
f 1 5 2
f 9 13 8
f 13 12 8
f 3 4 8
f 4 9 8
f 13 16 12
f 16 11 12
f 13 14 16
f 14 15 16
f 14 10 15
f 14 9 10
f 9 5 10
f 9 4 5
f 14 13 9
