o FracturedBasalt
v 0.414325 -0.5 0.028501
v 0.263073 -0.5 -0.20207
v 0.059917 -0.5 -0.35126
v -0.177544 -0.5 -0.276259
v -0.346868 -0.5 -0.098585
v -0.334332 -0.5 0.15092
v -0.18939 -0.5 0.354251
v 0.062736 -0.5 0.42462
v 0.31358 -0.5 0.302427
v 0.5 -0.351203 -0.028616
v 0.343946 -0.346334 -0.34565
v 0.027845 -0.321156 -0.5
v -0.294343 -0.321182 -0.373648
v -0.5 -0.273763 -0.09478
v -0.43524 -0.331157 0.245774
v -0.186805 -0.332695 0.450966
v 0.129261 -0.349887 0.5
v 0.392829 -0.248829 0.300258
v 0.440509 0.174735 -0.073535
v 0.239033 0.17372 -0.298797
v -0.0225 0.172533 -0.352778
v -0.269725 0.201002 -0.265343
v -0.3779 0.227206 -0.020936
v -0.325624 0.226221 0.237946
v -0.124049 0.196557 0.415466
v 0.146134 0.199993 0.401154
v 0.356901 0.179314 0.220648
v 0.232934 0.5 -0.055059
v 0.107033 0.5 -0.16246
v -0.038686 0.5 -0.187829
v -0.177359 0.5 -0.124787
v -0.235869 0.5 0.024009
v -0.175741 0.5 0.169028
v -0.054974 0.5 0.28643
v 0.109138 0.5 0.240949
v 0.234298 0.5 0.123136
f 3 2 8
f 2 10 1
f 3 11 2
f 4 12 3
f 5 13 4
f 6 14 5
f 7 15 6
f 8 16 7
f 9 17 8
f 1 18 9
f 11 19 10
f 12 20 11
f 13 21 12
f 14 22 13
f 15 23 14
f 16 24 15
f 17 25 16
f 18 26 17
f 10 27 18
f 20 28 19
f 21 29 20
f 22 30 21
f 23 31 22
f 24 32 23
f 25 33 24
f 26 34 25
f 26 36 35
f 19 36 27
f 30 33 35
f 1 9 2
f 9 8 2
f 8 7 4
f 7 6 4
f 6 5 4
f 4 3 8
f 2 11 10
f 3 12 11
f 4 13 12
f 5 14 13
f 6 15 14
f 7 16 15
f 8 17 16
f 9 18 17
f 1 10 18
f 11 20 19
f 12 21 20
f 13 22 21
f 14 23 22
f 15 24 23
f 16 25 24
f 17 26 25
f 18 27 26
f 10 19 27
f 20 29 28
f 21 30 29
f 22 31 30
f 23 32 31
f 24 33 32
f 25 34 33
f 26 35 34
f 26 27 36
f 19 28 36
f 36 28 29
f 29 30 35
f 30 31 33
f 31 32 33
f 33 34 35
f 35 36 29
