o LayeredTalus
v 0.331045 -0.5 0.002432
v 0.297327 -0.5 -0.257723
v 0.056576 -0.5 -0.373681
v -0.202638 -0.5 -0.337214
v -0.335293 -0.5 -0.117819
v -0.345425 -0.5 0.126416
v -0.214683 -0.5 0.363197
v 0.062424 -0.5 0.412117
v 0.2877 -0.5 0.254409
v 0.5 -0.345473 -0.054472
v 0.303418 -0.274193 -0.328489
v 0.023139 -0.337343 -0.5
v -0.319475 -0.306008 -0.425496
v -0.5 -0.352253 -0.118731
v -0.414597 -0.257065 0.20542
v -0.183824 -0.308954 0.405808
v 0.134815 -0.296533 0.5
v 0.430656 -0.299752 0.299192
v 0.356265 0.165487 -0.080242
v 0.246648 0.184999 -0.336043
v -0.025547 0.185135 -0.367221
v -0.314831 0.186312 -0.334274
v -0.391354 0.254914 -0.047814
v -0.366039 0.225301 0.233674
v -0.135722 0.228866 0.412133
v 0.142799 0.21388 0.371354
v 0.376033 0.219125 0.204399
v 0.216333 0.5 -0.07568
v 0.096371 0.5 -0.174341
v -0.044987 0.5 -0.230436
v -0.179041 0.5 -0.147753
v -0.235652 0.5 -0.001945
v -0.191583 0.5 0.15167
v -0.056098 0.5 0.245968
v 0.101091 0.5 0.204137
v 0.21383 0.5 0.089416
f 5 3 8
f 2 10 1
f 3 11 2
f 4 12 3
f 5 13 4
f 6 14 5
f 7 15 6
f 8 16 7
f 9 17 8
f 1 18 9
f 11 19 10
f 12 20 11
f 13 21 12
f 14 22 13
f 15 23 14
f 16 24 15
f 17 25 16
f 18 26 17
f 10 27 18
f 20 28 19
f 21 29 20
f 21 31 30
f 23 31 22
f 24 32 23
f 25 33 24
f 26 34 25
f 26 36 35
f 19 36 27
f 35 36 29
f 1 9 8
f 8 7 6
f 6 5 8
f 5 4 3
f 3 2 1
f 8 3 1
f 2 11 10
f 3 12 11
f 4 13 12
f 5 14 13
f 6 15 14
f 7 16 15
f 8 17 16
f 9 18 17
f 1 10 18
f 11 20 19
f 12 21 20
f 13 22 21
f 14 23 22
f 15 24 23
f 16 25 24
f 17 26 25
f 18 27 26
f 10 19 27
f 20 29 28
f 21 30 29
f 21 22 31
f 23 32 31
f 24 33 32
f 25 34 33
f 26 35 34
f 26 27 36
f 19 28 36
f 36 28 29
f 29 30 34
f 30 31 34
f 31 32 33
f 33 34 31
f 34 35 29
