o WeatheredBoulder
v 0.341968 -0.5 0.012961
v 0.291472 -0.5 -0.239912
v 0.056382 -0.5 -0.377982
v -0.207205 -0.5 -0.31902
v -0.390745 -0.5 -0.122848
v -0.388245 -0.5 0.147871
v -0.209656 -0.5 0.34914
v 0.05934 -0.5 0.420492
v 0.255273 -0.5 0.235804
v 0.5 -0.285617 -0.043093
v 0.297458 -0.324264 -0.308618
v 0.020187 -0.342859 -0.5
v -0.287891 -0.255422 -0.356528
v -0.5 -0.276159 -0.104308
v -0.479246 -0.279395 0.240645
v -0.229558 -0.26149 0.5
v 0.119064 -0.282169 0.460552
v 0.417152 -0.324908 0.296787
v 0.428685 0.204449 -0.084765
v 0.2517 0.227009 -0.329837
v -0.032466 0.187424 -0.402628
v -0.317473 0.241452 -0.313978
v -0.40834 0.20159 -0.037724
v -0.398121 0.241547 0.2563
v -0.138462 0.192752 0.407826
v 0.140031 0.169748 0.377151
v 0.37168 0.255898 0.210236
v 0.205565 0.5 -0.061171
v 0.095226 0.5 -0.165029
v -0.049733 0.5 -0.216602
v -0.195279 0.5 -0.143914
v -0.251074 0.5 0.00848
v -0.190277 0.5 0.154153
v -0.062698 0.5 0.261862
v 0.091294 0.5 0.200302
v 0.212423 0.5 0.099056
f 4 9 7
f 2 10 1
f 3 11 2
f 4 12 3
f 5 13 4
f 6 14 5
f 7 15 6
f 8 16 7
f 9 17 8
f 1 18 9
f 11 19 10
f 12 20 11
f 13 21 12
f 14 22 13
f 15 23 14
f 16 24 15
f 17 25 16
f 18 26 17
f 10 27 18
f 20 28 19
f 21 29 20
f 22 30 21
f 23 31 22
f 24 32 23
f 25 33 24
f 26 34 25
f 26 36 35
f 19 36 27
f 30 33 35
f 1 9 3
f 9 8 7
f 3 9 4
f 7 6 4
f 6 5 4
f 3 2 1
f 2 11 10
f 3 12 11
f 4 13 12
f 5 14 13
f 6 15 14
f 7 16 15
f 8 17 16
f 9 18 17
f 1 10 18
f 11 20 19
f 12 21 20
f 13 22 21
f 14 23 22
f 15 24 23
f 16 25 24
f 17 26 25
f 18 27 26
f 10 19 27
f 20 29 28
f 21 30 29
f 22 31 30
f 23 32 31
f 24 33 32
f 25 34 33
f 26 35 34
f 26 27 36
f 19 28 36
f 36 28 35
f 28 29 35
f 29 30 35
f 30 31 33
f 31 32 33
f 33 34 35
